<svg xmlns="http://www.w3.org/2000/svg" viewBox="0 0 92.16 90.92"><defs><style>.cls-1{fill:#e52421;}.cls-2{fill:#fff;}</style></defs><g id="Capa_2" data-name="Capa 2"><g id="Capa_1-2" data-name="Capa 1"><path class="cls-1" d="M21.24,14.25c.06.65.1,1.74.28,2.8.62,3.58,1.84,6.89,4.95,9.06,4,2.8,8.34,2.62,12.65.66a5.7,5.7,0,0,0,3.4-5.46,24.08,24.08,0,0,0-1.74-8.76c-1.33-3.8-3-7.42-6-10.27-3.49-3.33-7.4-3-10.29.86C22.12,6.3,21.31,10,21.24,14.25Z"/><path class="cls-1" d="M71,13.87C70.93,9.2,69.68,5.39,67.43,2.7,64.65-.62,61-.88,57.78,2a19,19,0,0,0-4.36,6,32.72,32.72,0,0,0-3.69,12.46c-.22,3.41,1.32,5.65,4.51,6.82a12.76,12.76,0,0,0,1.45.45c4.53,1,8.67.41,11.87-3.24C70.23,21.43,70.92,17.63,71,13.87Z"/><path class="cls-1" d="M9.75,35.18a38.23,38.23,0,0,0,4.16-1,4.6,4.6,0,0,0,3.39-5,26.29,26.29,0,0,0-1.07-5.82,19.34,19.34,0,0,0-4.71-8.65c-3-2.93-6.58-2.67-9,.74-3.07,4.39-3.24,9.15-1.25,14C2.82,33.15,5.72,35,9.75,35.18Z"/><path class="cls-1" d="M92.16,24.69c0-4.35-.9-7.35-2.58-9.44-2.56-3.2-6.1-3.37-8.94-.43a20.68,20.68,0,0,0-4.54,8.27,16.56,16.56,0,0,0-1.1,7,4.47,4.47,0,0,0,1.78,3.21c3.37,2.62,9.44,2.17,12.34-1A11.94,11.94,0,0,0,92.16,24.69Z"/><path class="cls-1" d="M21.24,14.25c.07-4.3.88-7.95,3.25-11.11C27.38-.71,31.29-1,34.78,2.28c3,2.85,4.67,6.47,6,10.27a24.08,24.08,0,0,1,1.74,8.76,5.7,5.7,0,0,1-3.4,5.46c-4.31,2-8.62,2.14-12.65-.66-3.11-2.17-4.33-5.48-4.95-9.06C21.34,16,21.3,14.9,21.24,14.25Z"/><path class="cls-1" d="M71,13.87c-.12,3.76-.81,7.56-3.48,10.62-3.2,3.65-7.34,4.27-11.87,3.24a12.76,12.76,0,0,1-1.45-.45c-3.19-1.17-4.73-3.41-4.51-6.82A32.72,32.72,0,0,1,53.42,8a19,19,0,0,1,4.36-6C61-.88,64.65-.62,67.43,2.7,69.68,5.39,70.93,9.2,71,13.87Z"/><path class="cls-1" d="M9.75,35.18c-4-.23-6.93-2-8.44-5.71-2-4.85-1.82-9.61,1.25-14,2.38-3.41,6-3.67,9-.74a19.34,19.34,0,0,1,4.71,8.65A26.29,26.29,0,0,1,17.3,29.2a4.6,4.6,0,0,1-3.39,5A38.23,38.23,0,0,1,9.75,35.18Z"/><path class="cls-1" d="M92.16,24.69a11.94,11.94,0,0,1-3,7.65c-2.9,3.13-9,3.58-12.34,1A4.47,4.47,0,0,1,75,30.09a16.56,16.56,0,0,1,1.1-7,20.68,20.68,0,0,1,4.54-8.27c2.84-2.94,6.38-2.77,8.94.43C91.26,17.34,92.19,20.34,92.16,24.69Z"/><path class="cls-1" d="M85.54,54.3c0,4.69-2.25,9.37-6.77,12.94l-27.85,22a8,8,0,0,1-9.71,0l-27.85-22c-9-7.15-9-18.73,0-25.87A26.46,26.46,0,0,1,29.71,36a27,27,0,0,1,14.6,4.1,3.27,3.27,0,0,0,3.51,0A27,27,0,0,1,62.42,36a26.5,26.5,0,0,1,16.35,5.35C83.29,44.94,85.54,49.62,85.54,54.3Z"/><path class="cls-2" d="M45.91,71.09a31.81,31.81,0,0,1-15.45-3.85,19.49,19.49,0,0,1-8.13-8,1.1,1.1,0,0,1,.28-1.61,1.21,1.21,0,0,1,.65-.17.86.86,0,0,1,.57.18,29,29,0,0,0,13.91,6.28,43.88,43.88,0,0,0,8.1.77c1.36,0,2.74-.07,4.1-.2a33.4,33.4,0,0,0,14.18-4.22,28.45,28.45,0,0,0,2.88-2l1-.76a1.16,1.16,0,0,1,.74-.32,1.07,1.07,0,0,1,.63.22,1.06,1.06,0,0,1,.27,1.52,19.56,19.56,0,0,1-8.41,8.41A29.65,29.65,0,0,1,49,70.9L46.91,71l-1,.06Z"/><path class="cls-2" d="M68.75,57.66a.61.61,0,0,1,.34.13c.44.32.25.61.08.94A18.89,18.89,0,0,1,61,66.87,29.09,29.09,0,0,1,49,70.4c-1,.08-2,.13-3,.19A31.14,31.14,0,0,1,30.7,66.8,18.92,18.92,0,0,1,22.77,59c-.2-.38-.26-.71.11-1a.74.74,0,0,1,.38-.09.37.37,0,0,1,.25.06,29.44,29.44,0,0,0,14.14,6.39,44.37,44.37,0,0,0,8.19.78A41.34,41.34,0,0,0,50,65a34.34,34.34,0,0,0,14.39-4.28A45.87,45.87,0,0,0,68.21,58c.2-.14.34-.29.54-.29m0-1a1.63,1.63,0,0,0-1,.42l-.09.07-.92.69a30.78,30.78,0,0,1-2.83,2,32.94,32.94,0,0,1-14,4.15c-1.34.13-2.7.2-4,.2a43.77,43.77,0,0,1-8-.76,28.43,28.43,0,0,1-13.67-6.17,1.36,1.36,0,0,0-.9-.3,1.7,1.7,0,0,0-.93.26,1.59,1.59,0,0,0-.45,2.26,20.06,20.06,0,0,0,8.34,8.23,32.28,32.28,0,0,0,15.69,3.91H46l1-.06L49,71.4a30.35,30.35,0,0,0,12.46-3.65,20,20,0,0,0,8.59-8.57l0,0A1.52,1.52,0,0,0,69.67,57a1.6,1.6,0,0,0-.92-.32Z"/></g></g></svg>